<svg xmlns="http://www.w3.org/2000/svg" width="250" height="50" viewBox="0 0 350.00000000000006 74.67915147520344" class="css-1j8o68f"><defs id="SvgjsDefs2181"></defs><g id="SvgjsG2182" featurekey="nameFeature-0" transform="matrix(1.579850196838379,0,0,1.579850196838379,4.3104688897429515,-15.458674140401666)" fill="black">
<path stroke-width=".6" stroke="white"  d="M10.6 17.4 c-0.68 1.84 -2.16 10.2 -3.48 17.48 l-0.16 0.76 c3.72 -0.28 7.8 -0.32 11.12 -0.12 l1.16 -6.04 c0.92 -4.96 1.56 -7.88 1.92 -9.6 c0.32 -1.76 1.64 -2.64 1.56 -1.92 c0 0.68 -0.36 2.12 -1.64 8.32 c-0.44 2.12 -1.08 5.52 -1.68 9.32 c0.24 0 0.44 0.04 0.68 0.04 c0.52 0.04 2.16 0.2 3.04 0.64 c0.76 0.44 -1.44 0.2 -3.12 0.04 c-0.24 0 -0.48 -0.04 -0.72 -0.04 l0 0.12 c-1.2 7.16 -2.48 11.36 -2.84 15.72 l-0.12 1.12 c0.4 1.48 0.56 2.2 0.48 2.76 c0 0.52 -0.68 1.16 -1.16 1.04 c-0.28 -0.04 -0.56 0 -0.44 -0.4 c0.04 -0.24 0.24 -1.8 0.36 -3.28 l-0.12 -0.44 c-0.96 -4.24 -5.28 -7.44 -9.84 -9.92 c-0.68 3.88 -1 6.12 -0.72 7.04 c0.36 1.68 -0.88 1.2 -0.88 0.08 c-0.08 -1.96 0.04 -3.96 0.56 -7.64 c-2.16 -1.12 -4.36 -2.08 -6.2 -2.92 c-1.24 -0.6 -2.32 -1.92 2.12 -3 c1.44 -0.32 3.24 -0.6 5.2 -0.8 c0 -0.12 0.04 -0.28 0.08 -0.4 l2.88 -15.64 c0.32 -1.68 1.04 -2.88 1.68 -3.48 c0.68 -0.6 0.64 0.2 0.28 1.16 z M17.96 36.24 l0 -0.08 c-3.84 -0.2 -7.76 0.08 -11.16 0.48 l-1.08 5.56 c4.4 2.4 8.4 5.48 10 9.08 c0.4 -3.92 1.24 -8.92 2.24 -15.04 z M-1.2 39.04 c1.88 0.76 3.92 1.6 5.88 2.6 c0.2 -1.36 0.48 -2.92 0.8 -4.8 c-1.68 0.24 -3.24 0.48 -4.48 0.76 c-3.48 0.8 -2.6 1.32 -2.2 1.44 z M30.36 40.2 c2.8 0 10.92 -3.76 13.36 -5.08 c0.2 -0.12 1.04 -0.08 0.36 0.36 c-2.64 1.72 -11.12 5.56 -13.76 5.56 c-1.96 0 -2.52 -1.16 -2.52 -2 s0.16 -1.24 0.08 -1.32 c-0.12 -0.12 -0.36 -0.08 -1.64 0.6 c-1.16 0.68 -2.44 1.2 -2.84 1.2 c-0.56 0 -0.96 -0.36 -0.96 -0.6 c0 -0.76 0.48 -1.8 2 -2.92 c1.28 -1 2.08 -1.2 2.76 -1.2 c0.92 0 1.48 1.44 1.08 1.44 s-0.52 -0.8 -0.96 -0.8 c-0.4 0 -1.2 0.32 -2.32 1.08 c-1.04 0.68 -1.84 1.84 -1.84 2.16 c0 0.08 0.04 0.12 0.16 0.12 c0.36 0 1.04 -0.28 2.16 -0.84 c1.52 -0.72 2.52 -1.28 3 -1.28 c0.16 0 0.52 0.08 0.52 0.36 c0 0.32 -0.4 1.04 -0.4 1.96 c0 0.68 0.72 1.2 1.76 1.2 z M43.800000000000004 35.32 c0.08 -0.32 0.36 -0.32 0.56 -0.36 c0.24 0 0.36 0.08 0.32 0.44 c-0.08 0.76 -0.6 2.16 -0.68 2.48 c-0.04 0.08 0 0.16 0.12 0.16 s1.28 -0.56 2.08 -0.96 c1.16 -0.6 1.96 -1.04 2.56 -1.04 s1.08 0.48 1.08 1.28 c-0.08 1.12 -0.04 1.8 0.32 1.84 c0.72 0.16 3.32 -0.64 5.32 -1.48 l6.16 -2.56 c0.36 -0.16 0.56 0.4 0.12 0.6 c-1.64 0.84 -3.92 1.76 -6.04 2.68 c-2.08 0.88 -4.8 1.76 -6 1.52 c-0.84 -0.16 -1.04 -1 -0.96 -2.12 c0.04 -0.6 0 -0.84 -0.12 -0.92 c-0.2 -0.12 -0.64 0.04 -1.4 0.44 c-0.64 0.32 -2.84 1.44 -3.2 1.44 c-0.24 0 -0.96 -0.28 -0.96 -0.6 c0 -0.2 0.52 -1.56 0.72 -2.84 z M61.480000000000004 35.32 c0.08 -0.32 0.36 -0.32 0.56 -0.36 c0.24 0 0.36 0.08 0.32 0.44 c-0.08 0.76 -0.6 2.16 -0.68 2.48 c-0.04 0.08 0 0.16 0.12 0.16 s1.28 -0.56 2.08 -0.96 c1.16 -0.6 1.96 -1.04 2.56 -1.04 s1.08 0.48 1.08 1.28 c-0.08 1.12 -0.04 1.8 0.32 1.84 c0.72 0.16 3.32 -0.64 5.32 -1.48 l6.16 -2.56 c0.36 -0.16 0.56 0.4 0.12 0.6 c-1.64 0.84 -3.92 1.76 -6.04 2.68 c-2.08 0.88 -4.8 1.76 -6 1.52 c-0.84 -0.16 -1.04 -1 -0.96 -2.12 c0.04 -0.6 0 -0.84 -0.12 -0.92 c-0.2 -0.12 -0.64 0.04 -1.4 0.44 c-0.64 0.32 -2.84 1.44 -3.2 1.44 c-0.24 0 -0.96 -0.28 -0.96 -0.6 c0 -0.2 0.52 -1.56 0.72 -2.84 z M83.56 40.2 c2.8 0 10.92 -3.76 13.36 -5.08 c0.2 -0.12 1.04 -0.08 0.36 0.36 c-2.64 1.72 -11.12 5.56 -13.76 5.56 c-1.96 0 -2.52 -1.16 -2.52 -2 s0.16 -1.24 0.08 -1.32 c-0.12 -0.12 -0.36 -0.08 -1.64 0.6 c-1.16 0.68 -2.44 1.2 -2.84 1.2 c-0.56 0 -0.96 -0.36 -0.96 -0.6 c0 -0.76 0.48 -1.8 2 -2.92 c1.28 -1 2.08 -1.2 2.76 -1.2 c0.92 0 1.48 1.44 1.08 1.44 s-0.52 -0.8 -0.96 -0.8 c-0.4 0 -1.2 0.32 -2.32 1.08 c-1.04 0.68 -1.84 1.84 -1.84 2.16 c0 0.08 0.04 0.12 0.16 0.12 c0.36 0 1.04 -0.28 2.16 -0.84 c1.52 -0.72 2.52 -1.28 3 -1.28 c0.16 0 0.52 0.08 0.52 0.36 c0 0.32 -0.4 1.04 -0.4 1.96 c0 0.68 0.72 1.2 1.76 1.2 z M100.2 35.04 c2.08 -3.56 4.44 -7.4 6.16 -10.24 l0.96 -2.6 c1.6 -4.32 1.76 -4.84 2.12 -4.84 s0.96 0.8 0.88 1.2 c-0.04 0.2 -1.08 2.16 -2.64 5 c-1.64 4.92 -3.72 10.76 -5.52 17.2 c-1.96 6.96 -2.12 9.88 -1.76 9.96 c0.32 0.08 -0.12 0.72 -0.56 0.48 c-0.6 -0.32 -0.28 -3.56 1.68 -10.84 c1.24 -4.6 2.6 -8.92 3.88 -12.72 c-1.44 2.44 -3.04 5.12 -4.6 7.6 c0.6 0.28 1.04 0.56 1.28 0.76 c0.24 0.24 0.04 0.52 -0.28 0.36 l-1.36 -0.6 c-4.72 7.4 -5.32 8.32 -6.08 8.32 c-0.64 0 -1.32 -0.92 -1.32 -2.2 c0 -3.2 2.4 -7.12 5.64 -7.12 c0.48 0 1.04 0.12 1.52 0.28 z M94.36000000000001 43.36 c0.44 0 4.04 -5.32 5.48 -7.76 c-0.24 -0.04 -0.48 -0.08 -0.72 -0.08 c-3 0 -5.16 3.72 -5.16 6.32 c0 0.68 0.04 1.52 0.4 1.52 z M108.4 22.4 c-1.12 0.64 -1.28 -0.24 -0.12 -0.88 c2.68 -1.48 6.8 -3.6 10.92 -5 c1.16 -3.88 1.88 -5.88 2.04 -6.24 c0.24 -0.64 1.08 -0.72 0.76 0.12 c-0.16 0.4 -0.92 2.68 -1.84 5.8 c2.08 -0.64 4.12 -1.04 5.92 -1.04 c5.72 0 8.88 1.2 8.88 4.56 c0 3.92 -4.6 7.28 -9.12 9.52 c-1.96 1 -6.8 3.4 -10.52 5.24 l-0.8 3.12 l12.04 -0.52 c1.16 -0.04 1.44 0.96 0.48 1 c-0.64 0.04 -7.48 0.32 -12.76 0.48 c-1.16 4.64 -2.08 8.44 -2.28 9.48 c-0.36 1.68 -0.36 1.84 -0.12 1.72 s0.4 0.08 -0.36 0.92 c-0.72 0.8 -1.12 0.36 -0.76 -1.08 l2.76 -11 c-2.6 0.08 -4.88 0.16 -5.2 0.12 c-1.04 -0.04 -1.8 -0.96 -0.32 -1.6 c0.76 -0.32 3.4 -1.64 6.72 -3.32 l1.2 -5 c1.12 -4.6 2.12 -8.28 2.92 -11.12 c-3.76 1.32 -7.72 3.2 -10.44 4.72 z M116.68 28.84 l-1.08 4.48 l9.32 -4.76 c6.28 -3.16 9.36 -6.32 9.36 -9.04 c0 -2.2 -3.24 -3.44 -8.2 -3.44 c-1.68 0 -3.92 0.52 -6.28 1.28 c-1 3.4 -2.16 7.56 -3.12 11.48 z M113.76 37.64 l0.68 -2.76 c-1.68 0.84 -3.08 1.48 -3.68 1.72 c-2.04 0.84 -2.28 1.16 -0.76 1.16 c0.4 0 1.96 -0.04 3.76 -0.12 z M132.12 40.48 c-2.08 0.16 -3 -1.6 -2.16 -3.44 c0.8 -1.84 2.4 -2.56 3.24 -2.4 c0.76 0.12 1 0.76 0.68 1.68 c-0.48 1.24 -1.96 2.12 -3.4 2.6 c0.16 0.56 0.68 0.84 1.4 0.8 c1.84 -0.16 4.4 -1.44 11.64 -4.6 c0.52 -0.24 0.64 0.28 0.32 0.4 c-6.08 2.68 -9.52 4.8 -11.72 4.96 z M130.68 37.32 c-0.2 0.44 -0.28 0.8 -0.28 1.12 c1.16 -0.4 2.56 -1.52 2.88 -2.4 c0.12 -0.36 0.08 -0.72 -0.2 -0.8 c-0.44 -0.12 -1.72 0.4 -2.4 2.08 z M143.36 26.92 c1.84 -8.64 2.88 -10.8 3.52 -10.8 c0.36 0 0.44 0.96 0.36 1.32 c-0.12 0.48 -0.64 1.32 -1.08 2.28 c-0.08 0.2 -1.12 4.16 -1.88 7.72 c-1.12 5 -1.88 9.8 -2.16 11.96 c2.28 -1.52 3.6 -2.52 4.48 -2.56 c0.76 0 0.84 0.64 0.84 1.48 c0 1.04 -0.08 1.52 0.64 1.52 c2.72 0 7.36 -2.6 10.72 -4.56 c0.48 -0.24 0.92 0.28 0.2 0.64 c-4.4 2.4 -7.44 4.64 -10.76 4.68 c-1.16 0 -1.72 -0.8 -1.72 -1.8 c0 -0.56 0.12 -1 -0.12 -1 c-0.4 0 -2.48 1.2 -4 2.2 c-0.32 0.24 -0.64 0.48 -0.88 0.48 s-0.44 -0.44 -0.32 -1.28 c0.32 -2.4 1.04 -7.08 2.16 -12.28 z M170.28000000000003 42.08 c-1.04 0 -0.96 -1 -0.48 -3.72 c0.52 -2.88 0.6 -3.24 0.4 -3.32 c-0.28 -0.16 -1.68 1.24 -2.72 2.52 c-1.28 1.56 -1.88 1.96 -2.36 1.88 c-0.44 -0.08 -0.56 -0.56 -0.04 -3.36 c0.44 -2.2 0.52 -3.48 0.2 -3.68 c-0.44 -0.24 -0.96 0.16 -3.16 3.68 c-2.4 3.96 -2.92 5.76 -3.56 5.76 c-0.36 0 -0.48 -0.32 -0.4 -0.88 c0.36 -2.16 0.52 -4.52 0.56 -5.4 c0.04 -0.8 1.12 -0.8 1.04 0.08 c-0.12 0.92 -0.52 2.8 -0.72 3.92 c-0.08 0.6 0.8 -1.04 2.44 -3.8 c2.04 -3.36 3 -4.36 3.88 -4.2 c1.16 0.24 0.88 1.92 0.4 4.56 l-0.36 1.96 c-0.12 0.64 0.12 0.8 0.64 0.16 c0.24 -0.24 0.56 -0.56 0.84 -0.92 c1.48 -1.8 2.92 -3.24 3.56 -3.24 c0.44 0 0.68 0.44 0.68 0.88 s-0.16 1.6 -0.56 3.44 c-0.52 2.4 -0.48 3 -0.12 3 c1.88 0 7.04 -3.04 12.36 -6.28 c0.2 -0.12 0.96 0.12 0.32 0.52 c-3.68 2.4 -10.2 6.44 -12.84 6.44 z M187.16000000000003 40.2 c2.8 0 10.92 -3.76 13.36 -5.08 c0.2 -0.12 1.04 -0.08 0.36 0.36 c-2.64 1.72 -11.12 5.56 -13.76 5.56 c-1.96 0 -2.52 -1.16 -2.52 -2 s0.16 -1.24 0.08 -1.32 c-0.12 -0.12 -0.36 -0.08 -1.64 0.6 c-1.16 0.68 -2.44 1.2 -2.84 1.2 c-0.56 0 -0.96 -0.36 -0.96 -0.6 c0 -0.76 0.48 -1.8 2 -2.92 c1.28 -1 2.08 -1.2 2.76 -1.2 c0.92 0 1.48 1.44 1.08 1.44 s-0.52 -0.8 -0.96 -0.8 c-0.4 0 -1.2 0.32 -2.32 1.08 c-1.04 0.68 -1.84 1.84 -1.84 2.16 c0 0.08 0.04 0.12 0.16 0.12 c0.36 0 1.04 -0.28 2.16 -0.84 c1.52 -0.72 2.52 -1.28 3 -1.28 c0.16 0 0.52 0.08 0.52 0.36 c0 0.32 -0.4 1.04 -0.4 1.96 c0 0.68 0.72 1.2 1.76 1.2 z M200.60000000000002 35.32 c0.08 -0.32 0.36 -0.32 0.56 -0.36 c0.24 0 0.36 0.08 0.32 0.44 c-0.08 0.76 -0.6 2.16 -0.68 2.48 c-0.04 0.08 0 0.16 0.12 0.16 s1.28 -0.56 2.08 -0.96 c1.16 -0.6 1.96 -1.04 2.56 -1.04 s1.08 0.48 1.08 1.28 c-0.08 1.12 -0.04 1.8 0.32 1.84 c0.72 0.1 3.32 -0.64 5.32 -1.48 l6.16 -2.56 c0.36 -0.16 0.56 0.4 0.12 0.6 c-1.64 0.84 -3.92 1.76 -6.04 2.68 c-2.08 0.88 -4.8 1.76 -6 1.52 c-0.84 -0.16 -1.04 -1 -0.96 -2.12 c0.04 -0.6 0 -0.84 -0.12 -0.92 c-0.2 -0.12 -0.64 0.04 -1.4 0.44 c-0.64 0.32 -2.84 1.44 -3.2 1.44 c-0.24 0 -0.96 -0.28 -0.96 -0.6 c0 -0.2 0.52 -1.56 0.72 -2.84 z"></path></g></svg>
